<svg width="34" height="34" viewBox="0 0 34 34" fill="none" xmlns="http://www.w3.org/2000/svg">
<path d="M16.6465 7.56639C18.7359 7.56639 20.4297 5.8726 20.4297 3.7832C20.4297 1.69379 18.7359 0 16.6465 0C14.5571 0 12.8633 1.69379 12.8633 3.7832C12.8633 5.8726 14.5571 7.56639 16.6465 7.56639Z" fill="#EA501B"/>
<path d="M11.4571 15.1328H21.8344C22.7284 15.1328 23.4555 14.348 23.4555 13.383V12.8983C23.4555 11.634 22.8297 10.4792 21.821 9.88429C20.6129 9.17195 18.7346 8.323 16.6457 8.323C14.5568 8.323 12.6785 9.17202 11.4704 9.88429C10.4618 10.4791 9.83594 11.634 9.83594 12.8983V13.383C9.83594 14.3481 10.563 15.1328 11.4571 15.1328Z" fill="#EA501B"/>
<path d="M6.80663 25.7256C8.89604 25.7256 10.5898 24.0318 10.5898 21.9424C10.5898 19.853 8.89604 18.1592 6.80663 18.1592C4.71723 18.1592 3.02344 19.853 3.02344 21.9424C3.02344 24.0318 4.71723 25.7256 6.80663 25.7256Z" fill="#EA501B"/>
<path d="M11.9851 28.044C10.777 27.3316 8.8987 26.4827 6.8098 26.4827C4.72089 26.4827 2.84259 27.3317 1.63449 28.044C0.625863 28.6387 0 29.7936 0 31.0579V31.5426C0 32.5076 0.727088 33.2924 1.62116 33.2924H11.9984C12.8925 33.2924 13.6196 32.5076 13.6196 31.5426V31.0579C13.6196 29.7936 12.9937 28.6387 11.9851 28.044Z" fill="#EA501B"/>
<path d="M26.4824 25.7256C28.5718 25.7256 30.2656 24.0318 30.2656 21.9424C30.2656 19.853 28.5718 18.1592 26.4824 18.1592C24.393 18.1592 22.6992 19.853 22.6992 21.9424C22.6992 24.0318 24.393 25.7256 26.4824 25.7256Z" fill="#EA501B"/>
<path d="M31.657 28.044C30.4489 27.3316 28.5706 26.4827 26.4817 26.4827C24.3928 26.4827 22.5145 27.3317 21.3064 28.044C20.2977 28.6387 19.6719 29.7937 19.6719 31.058V31.5427C19.6719 32.5077 20.399 33.2925 21.293 33.2925H31.6703C32.5644 33.2925 33.2915 32.5077 33.2915 31.5427V31.058C33.2914 29.7936 32.6655 28.6387 31.657 28.044Z" fill="#EA501B"/>
<path d="M20.4279 25.726C20.6503 25.726 20.8698 25.6284 21.0198 25.4422C21.2806 25.1156 21.2274 24.6397 20.9015 24.3782L17.4021 21.5787V17.4029C17.4021 16.9847 17.0636 16.6462 16.6454 16.6462C16.2272 16.6462 15.8887 16.9846 15.8887 17.4028V21.5792L12.3893 24.3781C12.0634 24.6397 12.0102 25.1156 12.271 25.4422C12.4211 25.6284 12.6405 25.7259 12.8629 25.7259C13.0284 25.7259 13.1955 25.672 13.3351 25.5604L16.6454 22.9122L19.9557 25.5604C20.0954 25.672 20.2623 25.726 20.4279 25.726Z" fill="#EA501B"/>
</svg>
